# Blender v2.79 (sub 0) OBJ File: 'Crystal1.blend'
# www.blender.org
mtllib crystal1.mtl
o Crystal1_Cube.001
v -0.109012 -0.378179 0.065416
v -0.116071 -0.206853 0.127685
v -0.229016 -0.255743 0.065708
v -0.116071 0.206853 0.127685
v -0.109012 0.378179 0.065416
v -0.229016 0.255743 0.065708
v -0.109012 -0.378179 -0.065416
v -0.229016 -0.255743 -0.065708
v -0.116071 -0.206853 -0.127685
v -0.109012 0.378179 -0.065416
v -0.116071 0.206853 -0.127685
v -0.229016 0.255743 -0.065708
v 0.109012 -0.378179 0.065416
v 0.229016 -0.255743 0.065708
v 0.116071 -0.206853 0.127685
v 0.109012 0.378179 0.065416
v 0.116071 0.206853 0.127685
v 0.229016 0.255743 0.065708
v 0.109012 -0.378179 -0.065416
v 0.116071 -0.206853 -0.127685
v 0.229016 -0.255743 -0.065708
v 0.109012 0.378179 -0.065416
v 0.229016 0.255743 -0.065708
v 0.116071 0.206853 -0.127685
vt 0.803235 0.990756
vt 0.176051 0.012366
vt 0.823949 0.012366
vt 0.196765 0.990756
vt 0.802455 0.198677
vt 0.197545 0.198677
vt 0.196765 0.009244
vt 0.803235 0.009244
vt 0.018714 0.197790
vt 0.802455 0.801323
vt 0.981286 0.802210
vt 0.197545 0.801323
vt 0.802455 0.801323
vt 0.803235 0.990756
vt 0.802455 0.198677
vt 0.197545 0.198677
vt 0.196765 0.009244
vt 0.803235 0.009244
vt 0.018714 0.197790
vt 0.834085 0.981286
vt 0.176051 0.802606
vt 0.176051 0.197394
vt 0.823949 0.197394
vt 0.823949 0.802606
vt 0.176051 0.802606
vt 0.176051 0.197394
vt 0.823949 0.197394
vt 0.823949 0.802606
vt 0.981286 0.197790
vt 0.018714 0.802210
vt 0.981286 0.197790
vt 0.176051 0.012366
vt 0.823949 0.012366
vt 0.197545 0.801323
vt 0.196765 0.990756
vt 0.018714 0.802210
vt 0.014611 0.207921
vt 0.014611 0.792079
vt 0.823949 0.987634
vt 0.985389 0.207921
vt 0.985389 0.792079
vt 0.176051 0.193316
vt 0.823949 0.193316
vt 0.985389 0.792079
vt 0.985389 0.207921
vt 0.014611 0.207921
vt 0.014611 0.792079
vt 0.176051 0.987634
vt 0.823949 0.823949
vn 0.4811 0.0000 0.8767
vn 0.0000 -0.3416 -0.9398
vn -0.3383 -0.3337 -0.8799
vn 0.3383 -0.3337 0.8799
vn 0.0000 0.3416 0.9398
vn 0.0000 0.3416 -0.9398
vn 0.3383 0.3337 -0.8799
vn -0.3383 0.3337 0.8799
vn 0.0000 0.0000 1.0000
vn 0.0000 0.0000 -1.0000
vn -0.3383 0.3337 -0.8799
vn 0.3383 0.3337 0.8799
vn 0.3383 -0.3337 -0.8799
vn -0.4811 0.0000 -0.8767
vn 0.0000 -0.3416 0.9398
vn -0.7142 -0.7000 -0.0000
vn -1.0000 0.0000 0.0000
vn -0.7142 0.7000 0.0000
vn 0.4811 0.0000 -0.8767
vn 0.7142 -0.7000 0.0000
vn 0.7142 0.7000 -0.0000
vn 0.0000 -1.0000 0.0000
vn 1.0000 0.0000 0.0000
vn -0.3383 -0.3337 0.8799
vn -0.4811 0.0000 0.8767
vn 0.0000 1.0000 0.0000
usemtl Purple
s off
f 15/1/1 14/2/1 18/3/1 17/4/1
f 19/5/2 7/6/2 9/7/2 20/8/2
f 9/7/3 7/6/3 8/9/3
f 15/1/4 13/10/4 14/11/4
f 16/12/5 5/13/5 4/14/5 17/4/5
f 10/15/6 22/16/6 24/17/6 11/18/6
f 24/17/7 22/16/7 23/19/7
f 4/14/8 5/13/8 6/20/8
f 2/21/9 15/22/9 17/23/9 4/24/9
f 20/25/10 9/26/10 11/27/10 24/28/10
f 10/15/11 11/18/11 12/29/11
f 16/12/12 17/4/12 18/30/12
f 19/5/13 20/8/13 21/31/13
f 9/7/14 8/32/14 12/33/14 11/18/14
f 1/34/15 13/10/15 15/1/15 2/35/15
f 3/36/16 8/9/16 7/6/16 1/34/16
f 8/37/17 3/38/17 6/39/17 12/40/17
f 5/13/18 10/15/18 12/29/18 6/41/18
f 21/42/19 20/8/19 24/17/19 23/43/19
f 13/10/20 19/5/20 21/31/20 14/11/20
f 22/16/21 16/12/21 18/30/21 23/19/21
f 7/6/22 19/5/22 13/10/22 1/34/22
f 14/44/23 21/45/23 23/46/23 18/47/23
f 1/34/24 2/35/24 3/36/24
f 3/48/25 2/35/25 4/49/25 6/20/25
f 22/16/26 10/15/26 5/13/26 16/12/26
