# Blender v2.79 (sub 0) OBJ File: 'Crystal2.blend'
# www.blender.org
mtllib crystal2.mtl
o Crystal2_Cylinder
v -0.077949 0.243715 -0.144791
v -0.086418 0.243715 -0.139901
v -0.084734 0.254034 -0.136484
v -0.075832 0.254034 -0.141623
v 0.077949 0.243715 -0.144791
v 0.075832 0.254034 -0.141623
v 0.084734 0.254034 -0.136484
v 0.086418 0.243715 -0.139901
v 0.164367 0.243715 -0.004889
v 0.160565 0.254034 -0.005139
v 0.160565 0.254034 0.005139
v 0.164367 0.243715 0.004889
v 0.086418 0.243715 0.139901
v 0.084734 0.254034 0.136484
v 0.075832 0.254034 0.141623
v 0.077949 0.243715 0.144791
v -0.077949 0.243715 0.144791
v -0.075832 0.254034 0.141623
v -0.084734 0.254034 0.136484
v -0.086418 0.243715 0.139901
v -0.164367 0.243715 0.004889
v -0.160565 0.254034 0.005140
v -0.160565 0.254034 -0.005139
v -0.164367 0.243715 -0.004889
v -0.000000 0.447851 -0.010279
v -0.008902 0.447851 -0.005139
v -0.008902 0.447851 0.005139
v -0.000000 0.447851 0.010279
v 0.008902 0.447851 0.005139
v 0.008902 0.447851 -0.005139
v -0.075832 -0.254034 -0.141623
v -0.084734 -0.254034 -0.136484
v -0.086418 -0.243715 -0.139901
v -0.077949 -0.243715 -0.144791
v 0.077949 -0.243715 -0.144791
v 0.086418 -0.243715 -0.139901
v 0.084734 -0.254034 -0.136484
v 0.075832 -0.254034 -0.141623
v 0.164367 -0.243715 -0.004889
v 0.164367 -0.243715 0.004889
v 0.160565 -0.254034 0.005139
v 0.160565 -0.254034 -0.005139
v 0.086418 -0.243715 0.139901
v 0.077949 -0.243715 0.144791
v 0.075832 -0.254034 0.141623
v 0.084734 -0.254034 0.136484
v -0.077949 -0.243715 0.144791
v -0.086418 -0.243715 0.139901
v -0.084734 -0.254034 0.136484
v -0.075832 -0.254034 0.141623
v -0.164367 -0.243715 0.004889
v -0.164367 -0.243715 -0.004889
v -0.160565 -0.254034 -0.005139
v -0.160565 -0.254034 0.005140
v -0.000000 -0.447851 -0.010279
v 0.008902 -0.447851 -0.005139
v 0.008902 -0.447851 0.005139
v -0.000000 -0.447851 0.010279
v -0.008902 -0.447851 0.005139
v -0.008902 -0.447851 -0.005139
vt 0.384510 0.756953
vt 0.490721 0.756953
vt 0.278299 0.952997
vt 0.852849 0.756953
vt 0.959061 0.756953
vt 0.746638 0.952997
vt 0.624992 0.746515
vt 0.624992 0.253485
vt 0.843347 0.253485
vt 0.843347 0.746515
vt 0.509278 0.756953
vt 0.615490 0.756953
vt 0.721702 0.952997
vt 0.627958 0.756953
vt 0.840381 0.756953
vt 0.734170 0.952997
vt 0.159619 0.243047
vt 0.265830 0.047003
vt 0.372042 0.243047
vt 0.035615 0.746515
vt 0.035615 0.253485
vt 0.144792 0.253485
vt 0.144792 0.746515
vt 0.503954 0.746515
vt 0.503954 0.253485
vt 0.613131 0.253485
vt 0.613131 0.746515
vt 0.386869 0.746515
vt 0.386869 0.253485
vt 0.496046 0.253485
vt 0.496046 0.746515
vt 0.855208 0.746515
vt 0.855208 0.253485
vt 0.964385 0.253485
vt 0.964385 0.746515
vt 0.040939 0.756953
vt 0.147151 0.756953
vt 0.253362 0.952997
vt 0.509278 0.243047
vt 0.721701 0.047003
vt 0.615490 0.243047
vt 0.852849 0.243047
vt 0.746638 0.047003
vt 0.959061 0.243047
vt 0.384510 0.243047
vt 0.278299 0.047003
vt 0.490722 0.243047
vt 0.627958 0.243047
vt 0.734169 0.047003
vt 0.840381 0.243047
vt 0.040939 0.243047
vt 0.253362 0.047003
vt 0.147151 0.243047
vt 0.156653 0.746515
vt 0.156653 0.253485
vt 0.375008 0.253485
vt 0.375008 0.746515
vt 0.372042 0.756953
vt 0.159619 0.756953
vt 0.037097 0.752226
vt 0.031661 0.752226
vt 0.031661 0.746515
vt 0.505437 0.752226
vt 0.500000 0.752226
vt 0.500000 0.746515
vt 0.265830 0.952997
vt 0.273353 0.954453
vt 0.270986 0.958823
vt 0.263043 0.963193
vt 0.260675 0.958823
vt 0.258308 0.954453
vt 0.031661 0.253485
vt 0.031661 0.247774
vt 0.037098 0.247774
vt 0.500000 0.253485
vt 0.500000 0.247774
vt 0.505437 0.247774
vt 0.258308 0.045547
vt 0.260675 0.041177
vt 0.263043 0.036807
vt 0.270986 0.041177
vt 0.273353 0.045547
vt 0.961638 0.758410
vt 0.749215 0.954453
vt 0.493299 0.758410
vt 0.280876 0.954453
vt 0.038362 0.241590
vt 0.250785 0.045547
vt 0.506701 0.241590
vt 0.719124 0.045547
vn -0.7169 0.5610 -0.4139
vn 0.7169 0.5610 0.4139
vn -0.0000 0.0000 1.0000
vn -0.7169 0.5610 0.4139
vn 0.0000 0.5610 0.8278
vn 0.0000 -0.5610 -0.8278
vn 0.8660 0.0000 -0.5000
vn -0.8660 0.0000 0.5000
vn -0.8660 0.0000 -0.5000
vn 0.8660 0.0000 0.5000
vn 0.7169 0.5610 -0.4139
vn -0.7169 -0.5610 0.4139
vn 0.7169 -0.5610 0.4139
vn -0.7169 -0.5610 -0.4139
vn 0.0000 -0.5610 0.8278
vn 0.7169 -0.5610 -0.4139
vn 0.0000 0.0000 -1.0000
vn -0.4692 0.3457 -0.8126
vn 0.4692 0.3457 -0.8126
vn 0.9384 0.3457 0.0000
vn 0.4692 0.3457 0.8126
vn -0.4692 0.3457 0.8126
vn -0.9384 0.3457 -0.0000
vn 0.0000 1.0000 -0.0000
vn -0.4692 -0.3457 -0.8126
vn 0.4692 -0.3457 -0.8126
vn 0.9384 -0.3457 -0.0000
vn 0.4692 -0.3457 0.8126
vn -0.4692 -0.3457 0.8126
vn -0.9384 -0.3457 -0.0000
vn 0.0000 -1.0000 -0.0000
vn 0.0000 0.2934 -0.9560
vn 0.8279 0.2934 -0.4780
vn 0.8279 0.2934 0.4780
vn -0.0000 0.2934 0.9560
vn -0.8279 0.2934 0.4780
vn -0.8279 0.2934 -0.4780
vn 0.3938 0.6163 -0.6820
vn 0.3938 0.6163 0.6820
vn -0.3938 0.6163 0.6820
vn 0.7875 0.6163 0.0000
vn -0.7875 0.6163 -0.0000
vn -0.3938 0.6163 -0.6820
vn 0.0000 -0.2934 -0.9560
vn -0.5000 0.0000 -0.8660
vn 0.8279 -0.2934 -0.4780
vn 0.8279 -0.2934 0.4780
vn -0.0000 -0.2934 0.9560
vn -0.8279 -0.2934 0.4780
vn -0.8279 -0.2934 -0.4780
vn 0.3938 -0.6163 -0.6820
vn 0.3938 -0.6163 0.6820
vn -0.3938 -0.6163 0.6820
vn 0.7875 -0.6163 0.0000
vn -0.7875 -0.6163 0.0000
vn -0.3938 -0.6163 -0.6820
vn 0.5000 0.0000 -0.8660
vn 1.0000 0.0000 0.0000
vn 0.5000 0.0000 0.8660
vn -0.5000 0.0000 0.8660
vn -1.0000 0.0000 0.0000
vn 0.0000 0.5610 -0.8278
usemtl Pink
s off
f 3/1/1 23/2/1 26/3/1
f 14/4/2 11/5/2 29/6/2
f 17/7/3 47/8/3 44/9/3 16/10/3
f 22/11/4 19/12/4 27/13/4
f 18/14/5 15/15/5 28/16/5
f 38/17/6 55/18/6 31/19/6
f 9/20/7 39/21/7 36/22/7 8/23/7
f 21/24/8 51/25/8 48/26/8 20/27/8
f 2/28/9 33/29/9 52/30/9 24/31/9
f 13/32/10 43/33/10 40/34/10 12/35/10
f 10/36/11 7/37/11 30/38/11
f 54/39/12 59/40/12 49/41/12
f 46/42/13 57/43/13 41/44/13
f 32/45/14 60/46/14 53/47/14
f 50/48/15 58/49/15 45/50/15
f 42/51/16 56/52/16 37/53/16
f 5/54/17 35/55/17 34/56/17 1/57/17
f 1/57/18 2/28/18 3/1/18 4/58/18
f 5/54/19 6/59/19 7/37/19 8/23/19
f 9/20/20 10/60/20 11/61/20 12/62/20
f 13/32/21 14/4/21 15/15/21 16/10/21
f 17/7/22 18/14/22 19/12/22 20/27/22
f 21/24/23 22/63/23 23/64/23 24/65/23
f 25/66/24 26/67/24 27/68/24 28/69/24 29/70/24 30/71/24
f 31/19/25 32/45/25 33/29/25 34/56/25
f 35/55/26 36/22/26 37/53/26 38/17/26
f 39/21/27 40/72/27 41/73/27 42/74/27
f 43/33/28 44/9/28 45/50/28 46/42/28
f 47/8/29 48/26/29 49/41/29 50/48/29
f 51/25/30 52/75/30 53/76/30 54/77/30
f 55/18/31 56/78/31 57/79/31 58/80/31 59/81/31 60/82/31
f 5/54/32 1/57/32 4/58/32 6/59/32
f 9/20/33 8/23/33 7/37/33 10/36/33
f 13/32/34 12/35/34 11/5/34 14/4/34
f 17/7/35 16/10/35 15/15/35 18/14/35
f 21/24/36 20/27/36 19/12/36 22/11/36
f 2/28/37 24/31/37 23/2/37 3/1/37
f 6/59/38 25/66/38 30/38/38 7/37/38
f 14/4/39 29/6/39 28/16/39 15/15/39
f 27/13/40 19/12/40 18/14/40 28/16/40
f 29/6/41 11/5/41 10/83/41 30/84/41
f 26/3/42 23/2/42 22/85/42 27/86/42
f 3/1/43 26/3/43 25/66/43 4/58/43
f 38/17/44 31/19/44 34/56/44 35/55/44
f 1/57/45 34/56/45 33/29/45 2/28/45
f 42/51/46 37/53/46 36/22/46 39/21/46
f 46/42/47 41/44/47 40/34/47 43/33/47
f 50/48/48 45/50/48 44/9/48 47/8/48
f 54/39/49 49/41/49 48/26/49 51/25/49
f 32/45/50 53/47/50 52/30/50 33/29/50
f 37/53/51 56/52/51 55/18/51 38/17/51
f 45/50/52 58/49/52 57/43/52 46/42/52
f 58/49/53 50/48/53 49/41/53 59/40/53
f 56/52/54 42/51/54 41/87/54 57/88/54
f 59/40/55 54/39/55 53/89/55 60/90/55
f 31/19/56 55/18/56 60/46/56 32/45/56
f 35/55/57 5/54/57 8/23/57 36/22/57
f 39/21/58 9/20/58 12/62/58 40/72/58
f 43/33/59 13/32/59 16/10/59 44/9/59
f 47/8/60 17/7/60 20/27/60 48/26/60
f 51/25/61 21/24/61 24/31/61 52/30/61
f 6/59/62 4/58/62 25/66/62
